<svg width="16" height="16" viewBox="0 0 16 16" fill="none" xmlns="http://www.w3.org/2000/svg">
<rect width="16" height="16" rx="8" fill="white"/>
<path d="M4 5.07645C4 4.81991 4.09009 4.60827 4.27027 4.44153C4.45045 4.27478 4.68469 4.19141 4.97297 4.19141C5.25612 4.19141 5.4852 4.27349 5.66023 4.43768C5.84041 4.60699 5.9305 4.8276 5.9305 5.09953C5.9305 5.34581 5.84299 5.55103 5.66795 5.71522C5.48778 5.88453 5.25097 5.96918 4.95753 5.96918H4.94981C4.66666 5.96918 4.43758 5.88453 4.26255 5.71522C4.08751 5.5459 4 5.33298 4 5.07645ZM4.10039 11.8105V6.66952H5.81467V11.8105H4.10039ZM6.76448 11.8105H8.47876V8.93984C8.47876 8.76026 8.49936 8.62173 8.54054 8.52426C8.61261 8.34981 8.72201 8.2023 8.86873 8.08174C9.01544 7.96116 9.19948 7.90088 9.42085 7.90088C9.99743 7.90088 10.2857 8.28824 10.2857 9.06298V11.8105H12V8.86288C12 8.10354 11.8198 7.52762 11.4595 7.13513C11.0991 6.74263 10.6229 6.54638 10.0309 6.54638C9.36679 6.54638 8.84942 6.83114 8.47876 7.40064V7.41603H8.47104L8.47876 7.40064V6.66952H6.76448C6.77477 6.8337 6.77992 7.3442 6.77992 8.20102C6.77992 9.05784 6.77477 10.261 6.76448 11.8105Z" fill="#215CFF"/>
</svg>
